<svg xmlns="http://www.w3.org/2000/svg" viewBox="0 0 24 24">
  <path d="M2 12c0-3.771 0-5.657 1.172-6.828S6.229 4 10 4h1.5c3.771 0 5.657 0 6.828 1.172S19.5 8.229 19.5 12s0 5.657-1.172 6.828S15.271 20 11.5 20H10c-3.771 0-5.657 0-6.828-1.172c-.654-.653-.943-1.528-1.07-2.828M22 14v-4" fill="none" stroke="currentColor" stroke-width="1.5" stroke-linecap="round"/>
  <path d="M7 9s.5.9.5 3s-.5 3-.5 3m3.5-6s.5.9.5 3s-.5 3-.5 3M14 9s.5.9.5 3s-.5 3-.5 3" fill="none" stroke="currentColor" stroke-width="1.5" stroke-linecap="round"/>
</svg>