<svg xmlns="http://www.w3.org/2000/svg" viewBox="0 0 24 24">
  <path d="m13 8.071l3.221 2.302a2 2 0 0 1 0 3.254L13 15.93m-5.5-.872V8.943a1 1 0 0 1 1.581-.814l4.28 3.057a1 1 0 0 1 0 1.628L9.08 15.87a1 1 0 0 1-1.581-.814Z" fill="none" stroke="currentColor" stroke-width="1.5" stroke-linecap="round"/>
  <path d="M7 3.338A9.95 9.95 0 0 1 12 2c5.523 0 10 4.477 10 10s-4.477 10-10 10S2 17.523 2 12c0-1.821.487-3.53 1.338-5" fill="none" stroke="currentColor" stroke-width="1.5" stroke-linecap="round"/>
</svg>