<svg xmlns="http://www.w3.org/2000/svg" viewBox="0 0 24 24">
  <path stroke="currentColor" stroke-linecap="round" stroke-width="1.5" d="M22 19h-8M2 19h8m2-2v-3" fill="none"/>
  <circle cx="12" cy="19" r="2" stroke="currentColor" stroke-width="1.5" fill="none"/>
  <path stroke="currentColor" stroke-linecap="round" stroke-width="1.5" d="M14 14H5a3 3 0 1 1 0-6h14a3 3 0 1 1 0 6h-1M12 2h7a3 3 0 1 1 0 6H5a3 3 0 0 1 0-6h3m5 3h6m-6 6h6" fill="none"/>
  <circle cx="6" cy="5" r="1" fill="currentColor"/>
  <circle cx="6" cy="11" r="1" fill="currentColor"/>
</svg>